<mxfile host="app.diagrams.net" modified="2024-02-27T20:43:26.164Z" agent="Mozilla/5.0 (Windows NT 10.0; Win64; x64) AppleWebKit/537.36 (KHTML, like Gecko) Chrome/121.0.0.0 Safari/537.36" version="23.1.7" etag="SSLajKm6ig7I0Puq4PkN" type="github">
  <diagram name="Strona-1" id="P5BCMBpOlqonzK-uw10m">
    <mxGraphModel>
      <root>
        <mxCell id="0" />
        <mxCell id="1" parent="0" />
      </root>
    </mxGraphModel>
  </diagram>
</mxfile>
